PathFileType  4	(X/Y/Z) C:\Users\antoi\Documents\MyRepositories\mobilecap\ResultsAnalysis
DataRate	CameraRate	NumFrames	NumMarkers	Units	OrigDataRate	OrigDataStartFrame	OrigNumFrames
100.0	100.0	7	51	mm	100.0	65	256
Frame#	Time	r_knee			r_shank_antsup			r_ankle			r_calc			r_5meta			r_toe			L_knee			L_shank_antsup			L_ankle			L_calc			L_5meta			L_toe			r_sh2			r_sh3			r_sh4			L_sh2			L_sh3			r_thigh1			r_thigh2			r_thigh3			r_thigh4			r_thigh5			L_thigh1			L_thigh2			L_thigh3			L_thigh4			r.ASIS			r.PSIS			L.ASIS			L.PSIS			C7			R_Shoulder			L_Shoulder			R_Sternum			L_Sternum			R_humerus			R_elbow_med			R_elbow_lat			R_forearm			R_wrist_radius			R_wrist_ulna			L_humerus			L_elbow_med			L_elbow_lat			L_forearm			L_wrist_radius			L_wrist_ulna			R_HJC			L_HJC			R_HJC_reg			L_HJC_reg			
		X1	Y1	Z1	X2	Y2	Z2	X3	Y3	Z3	X4	Y4	Z4	X5	Y5	Z5	X6	Y6	Z6	X7	Y7	Z7	X8	Y8	Z8	X9	Y9	Z9	X10	Y10	Z10	X11	Y11	Z11	X12	Y12	Z12	X13	Y13	Z13	X14	Y14	Z14	X15	Y15	Z15	X16	Y16	Z16	X17	Y17	Z17	X18	Y18	Z18	X19	Y19	Z19	X20	Y20	Z20	X21	Y21	Z21	X22	Y22	Z22	X23	Y23	Z23	X24	Y24	Z24	X25	Y25	Z25	X26	Y26	Z26	X27	Y27	Z27	X28	Y28	Z28	X29	Y29	Z29	X30	Y30	Z30	X31	Y31	Z31	X32	Y32	Z32	X33	Y33	Z33	X34	Y34	Z34	X35	Y35	Z35	X36	Y36	Z36	X37	Y37	Z37	X38	Y38	Z38	X39	Y39	Z39	X40	Y40	Z40	X41	Y41	Z41	X42	Y42	Z42	X43	Y43	Z43	X44	Y44	Z44	X45	Y45	Z45	X46	Y46	Z46	X47	Y47	Z47	X48	Y48	Z48	X49	Y49	Z49	X50	Y50	Z50	X51	Y51	Z51	

65	0.64000000	-883.10703	808.06126	-430.30516	-989.17328	712.74817	-393.09763	-1250.43131	471.05173	-419.15094	-1318.33354	467.17304	-480.60840	-1161.18250	357.85387	-384.64045	-1117.24138	365.72245	-436.32152	-949.17288	801.14149	-749.43713	-1019.10572	612.69139	-721.66936	-1287.03453	453.57220	-721.16072	-1355.83498	430.27529	-653.27768	-1188.26890	345.96850	-776.02188	-1135.20829	366.11372	-721.24469	-1073.66028	638.99651	-388.20187	-943.49945	670.94506	-435.02760	-1027.23292	592.01136	-441.75966	-1064.83604	662.89247	-779.82706	-1152.88763	585.37952	-758.25149	-920.45294	1097.63405	-395.25347	-874.91275	994.77716	-400.49623	-925.32280	947.90891	-395.70483	-1023.00660	1055.97431	-423.33980	-976.69564	946.30047	-417.34556	-1041.96676	1081.76486	-768.49923	-1013.35367	946.93674	-776.22432	-932.48078	1099.10573	-767.85253	-906.55461	965.32951	-761.64082	-923.71827	1335.82354	-454.81638	-1101.64043	1416.87151	-534.48198	-953.10919	1330.23374	-732.00691	-1107.92283	1419.13173	-626.62568	-868.94503	1857.14047	-613.32974	-784.83128	1800.57540	-458.53282	-825.00846	1798.44328	-781.78434	-758.61653	1735.31816	-594.43515	-761.80766	1730.78473	-642.39731	-819.89356	1608.04082	-279.55503	-920.77039	1481.19472	-206.35317	-893.36014	1562.10720	-176.75837	-701.33170	1509.20370	-258.06153	-636.87831	1480.66330	-302.37787	-623.07107	1486.17192	-268.70710	-792.13005	1552.95406	-913.03538	-874.98959	1439.99531	-927.56811	-829.65841	1482.18165	-989.99448	-651.81964	1504.51832	-887.50432	-603.05465	1515.06677	-836.73852	-589.91779	1501.34913	-864.47498	-1029.88560	1266.57841	-485.77746	-1052.49522	1267.84035	-681.95157	-1020.77497	1267.48769	-489.83779	-1033.28759	1271.98786	-673.36354	
66	0.65000000	-880.78581	813.36620	-429.93355	-987.38833	717.79202	-392.32900	-1247.17519	474.18206	-418.27614	-1314.45775	472.48683	-480.01332	-1160.57901	358.15969	-384.27113	-1116.55459	365.28861	-435.84592	-947.33821	808.36857	-750.53488	-1017.70223	619.82299	-723.05724	-1284.90088	457.81477	-722.15776	-1352.98237	436.26108	-654.03045	-1188.02571	346.49387	-776.04364	-1134.78488	365.86098	-721.62771	-1071.49860	643.46452	-387.45001	-941.18416	676.07666	-433.69806	-1024.25388	596.63916	-440.36619	-1063.42340	669.10526	-781.09030	-1150.98950	591.15001	-759.29326	-908.39513	1104.26766	-394.70243	-866.61785	999.69239	-400.30755	-918.67397	954.73626	-395.27960	-1012.93947	1065.59523	-423.16882	-970.00609	954.78065	-417.13385	-1032.26843	1091.70078	-767.94837	-1007.91981	956.04683	-776.04036	-922.45441	1105.59770	-767.95338	-900.42683	971.14043	-762.12846	-907.45494	1348.04281	-454.46684	-1086.89772	1425.78671	-533.03895	-938.49949	1342.13650	-732.19872	-1093.71651	1428.13473	-625.15926	-864.24612	1871.21541	-612.20997	-779.34137	1816.95806	-457.55813	-819.48938	1814.93987	-779.69174	-752.04932	1751.81170	-592.92514	-755.14831	1747.16016	-641.77755	-816.14021	1626.45119	-276.57270	-918.64888	1502.27603	-204.26211	-891.54773	1582.96514	-173.55076	-699.33059	1530.97829	-253.55700	-634.73778	1503.22025	-296.99732	-621.21517	1508.51267	-263.06733	-787.44738	1570.81168	-914.65322	-871.74421	1458.41645	-929.92991	-826.64317	1500.51215	-991.84392	-649.43660	1524.52215	-888.91433	-601.06191	1535.21120	-838.36540	-587.83560	1521.72458	-865.98802	-1012.35313	1276.83432	-485.10974	-1036.30036	1277.94891	-681.12504	-1003.52361	1277.54721	-489.26230	-1017.13048	1282.23295	-673.17906	
67	0.66000000	-876.99339	820.81233	-428.54115	-984.31288	724.87875	-390.50511	-1242.17163	478.49888	-416.83225	-1308.61832	479.73674	-479.10726	-1159.54495	358.74759	-383.82135	-1115.45028	364.92892	-435.37339	-944.81038	817.29759	-752.00084	-1014.75547	628.58110	-724.97567	-1281.31845	463.84253	-723.81307	-1348.44794	444.48884	-655.63692	-1187.40651	347.34156	-776.20080	-1134.18639	365.49396	-722.19772	-1067.68825	649.81472	-385.75276	-937.61035	683.34292	-431.47886	-1019.92034	603.24661	-438.20498	-1060.99284	677.33526	-782.78522	-1147.85843	598.80005	-760.95494	-896.05174	1112.60464	-394.04279	-857.17466	1006.69311	-399.59181	-910.61808	963.41394	-393.99969	-1001.80001	1076.51518	-422.42651	-961.89294	964.82553	-416.28963	-1021.54706	1103.09823	-767.93242	-1001.38235	966.81264	-776.56411	-911.90889	1113.66814	-768.82824	-893.35607	978.85354	-763.34469	-890.86104	1361.54456	-454.31557	-1071.70922	1435.51063	-531.48004	-923.44342	1355.67414	-731.81818	-1079.24113	1437.98928	-623.85435	-859.13481	1885.78350	-611.46079	-773.70556	1834.36041	-456.53986	-813.63576	1832.27452	-778.01173	-745.23984	1768.65609	-590.93306	-748.38065	1764.02112	-640.98203	-812.65229	1645.68373	-273.77986	-917.35270	1524.65116	-202.82042	-890.03791	1604.72058	-170.57575	-697.73789	1552.56778	-249.16519	-633.50115	1525.32711	-291.68421	-619.87126	1529.95800	-257.90590	-783.55097	1588.79753	-916.12987	-869.43634	1477.54034	-932.05231	-824.16541	1519.62459	-993.27652	-647.46227	1544.04889	-890.04380	-599.48067	1554.38332	-839.88271	-586.23826	1541.02260	-867.52676	-994.17692	1288.14691	-484.50878	-1019.33867	1289.25304	-680.37225	-985.43619	1289.09326	-488.66175	-1000.41282	1294.01991	-672.43464	
68	0.67000000	-871.50172	830.38759	-426.02888	-979.58164	734.06022	-387.70448	-1235.12295	484.05571	-415.00276	-1300.49295	488.90922	-477.64648	-1157.95505	359.76052	-383.30131	-1113.88383	364.72969	-434.83070	-940.96776	827.98284	-753.75985	-1010.17989	639.06380	-727.40027	-1275.62858	471.76589	-725.92782	-1341.99242	455.57608	-657.58147	-1186.37952	348.79753	-776.54517	-1133.01081	365.40699	-722.82605	-1062.04162	658.30326	-383.13875	-932.48753	692.73603	-428.59471	-1013.94940	611.73960	-435.24880	-1056.97672	687.72597	-785.08059	-1143.02446	608.57256	-763.27262	-884.19535	1121.89100	-393.49819	-846.74058	1015.49154	-398.15185	-901.21383	973.59528	-392.04852	-989.64935	1088.52485	-420.96743	-952.45385	976.08792	-414.47434	-1010.14637	1115.74648	-768.43244	-993.78957	978.92562	-777.64608	-900.55951	1123.50624	-770.32482	-885.36017	988.31647	-765.41700	-874.07276	1376.10434	-454.29756	-1056.73385	1446.27319	-530.47325	-908.04346	1370.46886	-731.16497	-1064.61378	1448.67000	-622.65949	-853.61546	1900.79602	-610.62669	-767.93828	1852.11171	-455.42684	-807.30760	1849.83939	-776.67206	-738.12900	1785.34399	-588.77473	-741.30259	1781.03826	-639.86573	-809.45173	1665.57855	-270.99248	-916.99973	1548.46650	-203.08544	-888.83002	1626.94011	-167.83982	-696.47369	1573.57766	-244.75941	-632.57156	1546.71728	-286.32589	-619.13476	1549.95044	-252.96934	-780.19173	1606.47552	-917.32474	-867.75149	1496.76976	-934.10882	-821.94615	1539.00726	-994.53441	-645.91706	1562.51098	-891.34316	-597.94282	1572.21227	-841.40015	-584.71182	1558.95512	-869.21974	-975.83438	1300.52713	-484.09478	-1001.92467	1301.62572	-679.83776	-967.36628	1302.12925	-488.28329	-983.04419	1306.89466	-671.69389	
69	0.68000000	-864.27711	841.65327	-423.04552	-973.06502	745.12893	-384.44424	-1225.45200	490.84739	-412.62453	-1289.55897	500.04402	-475.68962	-1155.66684	361.33262	-382.63330	-1111.75296	364.82534	-434.14395	-935.01120	840.38722	-755.98844	-1003.46531	651.27540	-730.79864	-1267.30127	481.30537	-727.99718	-1332.81832	469.42736	-659.52863	-1184.75203	351.14502	-777.06995	-1130.88471	365.78330	-723.43627	-1054.73987	668.62579	-379.90136	-925.52135	703.97170	-425.11971	-1006.00250	621.87734	-431.46044	-1050.96506	700.13141	-787.94402	-1136.15096	620.28024	-765.91257	-871.60635	1132.45927	-392.68650	-835.46822	1025.78682	-396.06426	-890.73923	985.01213	-389.59097	-976.90323	1101.37850	-419.06254	-942.00148	988.28857	-411.81839	-998.64330	1129.29212	-769.47500	-985.01336	992.25351	-779.16190	-888.43123	1135.18090	-772.22964	-876.24721	999.45398	-768.37139	-857.31046	1391.49866	-454.31586	-1041.74738	1457.85785	-529.73690	-892.44346	1386.12852	-730.61714	-1049.95282	1460.18055	-621.48891	-847.66123	1916.09629	-609.47288	-762.03310	1869.48176	-454.11085	-800.50084	1866.49430	-774.92501	-730.68371	1801.55720	-586.74789	-733.84137	1797.66402	-638.56954	-806.52035	1685.87860	-268.00631	-917.10681	1572.55147	-204.08965	-887.79476	1649.09365	-165.47808	-695.49208	1593.68683	-240.30906	-631.60330	1566.82177	-280.94650	-618.87811	1568.56168	-248.04564	-777.09352	1623.90237	-918.46043	-866.22188	1515.57565	-935.66992	-820.17979	1558.04885	-995.77192	-644.45920	1579.52847	-892.90428	-596.01030	1588.47028	-843.15419	-582.88970	1575.31733	-871.13789	-957.46371	1313.78031	-483.84040	-984.34809	1314.90159	-679.47545	-949.19665	1316.01304	-488.00458	-965.57356	1320.65188	-671.07635	
70	0.69000000	-855.29268	854.00007	-420.24922	-964.56472	757.62132	-381.06541	-1212.90015	498.86298	-409.59069	-1275.42269	513.20209	-473.46196	-1152.42974	363.82923	-381.76675	-1108.78148	365.52971	-433.41580	-926.60307	854.21775	-758.81986	-994.13126	664.93150	-735.39065	-1255.95589	492.30616	-729.88654	-1320.18870	485.36402	-661.31513	-1182.15606	354.63993	-777.65872	-1127.73048	366.60361	-724.00962	-1045.25281	680.27836	-375.98776	-916.41993	716.64266	-421.16876	-995.77819	633.34229	-427.04515	-1042.81035	714.04316	-791.04423	-1126.99127	633.29468	-768.54083	-858.08157	1144.32187	-391.30731	-823.66914	1037.27240	-393.51775	-879.48648	997.27083	-386.82602	-963.95888	1114.71865	-417.22373	-930.77444	1000.99283	-409.28633	-987.00000	1143.36407	-770.78347	-974.56944	1006.75782	-781.12784	-876.04925	1148.20224	-774.66108	-865.73615	1012.14247	-772.04488	-840.99052	1407.26706	-454.44122	-1026.56303	1469.82677	-528.50398	-877.16579	1402.28717	-730.08418	-1035.49520	1472.43091	-620.29765	-841.04062	1931.28765	-608.25688	-755.67080	1886.19002	-452.83436	-793.28368	1881.92303	-772.98874	-722.79917	1817.11650	-584.82681	-726.01347	1813.39969	-637.30640	-803.63863	1706.13346	-264.83315	-916.95878	1595.38821	-203.91656	-886.73699	1670.76615	-163.49750	-694.62350	1612.69987	-235.82305	-630.57493	1585.21602	-275.57413	-618.54270	1586.21304	-243.00850	-774.02375	1641.08337	-919.78428	-864.61175	1533.66409	-936.44863	-818.83182	1576.41603	-996.96231	-642.57880	1594.95930	-894.53527	-593.44133	1603.03695	-845.24049	-580.65381	1589.85922	-873.25429	-939.35699	1327.49193	-483.61410	-967.16886	1328.84794	-679.11691	-930.95946	1330.03268	-487.83078	-948.72253	1335.21357	-670.40798	
71	0.70000000	-844.46503	866.97951	-417.89658	-953.72116	770.92266	-377.67823	-1197.81446	508.03983	-406.20574	-1258.27996	528.28808	-470.83818	-1148.04993	367.94082	-380.82189	-1104.60207	367.21074	-432.70474	-915.80842	868.87031	-761.92840	-982.25041	679.49943	-740.57906	-1241.73960	504.70075	-731.97587	-1304.31657	503.03441	-662.99334	-1178.35913	359.75028	-778.17824	-1123.48304	368.14861	-724.56386	-1032.51676	693.01024	-371.08061	-904.94272	730.17870	-417.26205	-983.16655	645.92813	-422.43771	-1032.37846	728.90042	-794.15205	-1115.43381	647.12324	-771.15074	-844.92177	1156.68072	-389.39202	-811.65538	1049.43045	-390.64279	-867.75038	1009.85343	-384.27250	-950.91512	1128.11432	-416.03977	-918.87335	1013.81357	-407.74715	-974.73398	1157.64275	-771.72011	-962.36012	1021.78498	-783.10601	-863.71104	1161.95321	-777.52920	-853.81471	1026.00764	-776.08508	-825.65282	1422.93813	-454.52970	-1011.80826	1482.01992	-526.67139	-862.81816	1418.46627	-729.23318	-1021.58773	1485.26709	-619.02491	-833.57417	1946.04640	-607.06949	-748.44295	1902.01429	-451.94764	-785.66068	1896.55341	-771.52152	-714.24279	1831.90678	-582.96846	-717.64899	1828.23335	-636.17994	-800.46405	1725.74851	-261.77880	-916.48575	1617.04784	-203.10036	-885.55565	1691.74384	-161.89127	-693.71792	1630.37706	-231.35644	-629.52212	1601.97129	-270.03317	-617.94696	1602.69629	-237.60128	-770.77864	1657.47647	-921.02900	-862.85119	1550.76843	-936.58786	-817.36627	1593.46405	-997.49198	-640.08627	1608.66906	-896.23837	-590.22953	1615.75870	-847.61147	-577.95168	1602.40719	-875.62514	-922.27424	1341.36378	-483.20723	-951.08216	1343.13762	-678.56255	-913.60310	1343.83401	-487.84046	-932.85143	1350.21802	-669.68970	
